<svg width="19" height="29" viewBox="0 0 19 29" fill="none" xmlns="http://www.w3.org/2000/svg">
<path fill-rule="evenodd" clip-rule="evenodd" d="M9.60746 0.516785C14.3894 0.516785 18.2799 4.40722 18.2799 9.18918C18.2799 13.3762 15.2948 16.8816 11.3419 17.6847V19.5961C11.3419 20.5552 10.5666 21.3305 9.60746 21.3305C8.64829 21.3305 7.87298 20.5552 7.87298 19.5961V16.1271C7.87298 15.1679 8.64829 14.3926 9.60746 14.3926C12.4763 14.3926 14.8109 12.058 14.8109 9.18918C14.8109 6.32035 12.4763 3.98574 9.60746 3.98574C6.73863 3.98574 4.40402 6.32035 4.40402 9.18918C4.40402 10.1484 3.62871 10.9237 2.66954 10.9237C1.71037 10.9237 0.935059 10.1484 0.935059 9.18918C0.935059 4.40722 4.8255 0.516785 9.60746 0.516785ZM7.87295 26.534C7.87295 25.5749 8.64827 24.7995 9.60743 24.7995C10.5666 24.7995 11.3419 25.5749 11.3419 26.534C11.3419 27.4932 10.5666 28.2685 9.60743 28.2685C8.64827 28.2685 7.87295 27.4932 7.87295 26.534Z" fill="#004A45"/>
</svg>
