<?xml version="1.0" standalone="no"?>
<!DOCTYPE svg PUBLIC "-//W3C//DTD SVG 20010904//EN"
 "http://www.w3.org/TR/2001/REC-SVG-20010904/DTD/svg10.dtd">
<svg version="1.0" xmlns="http://www.w3.org/2000/svg"
 width="270.000000pt" height="99.000000pt" viewBox="0 0 270.000000 99.000000"
 preserveAspectRatio="xMidYMid meet">

<g transform="translate(0.000000,99.000000) scale(0.100000,-0.100000)"
fill="#000000" stroke="none">
<path d="M1467 972 c-14 -9 -59 -55 -99 -102 -110 -128 -103 -117 -84 -139 17
-18 16 -20 -4 -26 -23 -7 -29 -3 -127 89 -42 39 -42 39 -69 21 -18 -11 -29
-14 -33 -6 -6 10 -130 -23 -238 -65 l-43 -16 0 -64 c0 -62 1 -64 25 -64 16 0
25 -6 25 -15 0 -11 -11 -15 -40 -15 -23 0 -58 -9 -79 -20 l-39 -19 0 50 c0 74
-40 135 -116 173 -51 27 -68 30 -145 30 -125 0 -279 -55 -370 -132 l-32 -27
59 -95 c51 -83 61 -95 84 -93 25 1 31 -10 119 -213 64 -145 99 -214 109 -214
19 0 167 51 194 66 18 11 19 16 7 70 -8 33 -16 66 -18 74 -3 8 5 3 18 -11 61
-69 150 -83 232 -36 l46 25 6 -29 c5 -21 12 -29 28 -28 35 0 162 25 175 33 7
4 12 30 12 62 0 30 5 54 10 54 6 0 78 -34 162 -76 130 -65 154 -74 175 -65 21
10 23 17 23 84 l0 73 51 22 51 21 -6 -39 c-7 -44 -11 -42 101 -60 40 -6 86 -9
103 -5 23 5 32 3 36 -10 4 -9 15 -15 28 -13 16 2 22 -3 24 -23 3 -25 8 -27
107 -44 126 -21 153 -17 157 27 2 25 9 33 31 39 26 7 27 6 27 -31 0 -37 0 -38
48 -44 99 -14 102 -15 102 -46 0 -26 5 -30 73 -53 54 -18 78 -22 94 -14 18 8
40 62 119 301 53 160 99 296 101 302 6 17 -196 65 -219 52 -13 -6 -18 -5 -18
5 0 10 -39 22 -126 40 -158 34 -164 32 -164 -58 0 -64 0 -65 -28 -65 -15 0
-44 -8 -65 -19 -43 -22 -40 -27 -57 94 -19 136 -11 125 -99 125 -47 -1 -86 -6
-101 -15 -15 -8 -54 -15 -95 -15 -77 -1 -98 -11 -109 -53 l-7 -28 -28 20 c-15
11 -47 24 -70 30 -24 5 -44 11 -47 13 -2 3 23 17 57 33 33 16 64 34 69 40 6 7
-8 36 -38 83 l-48 71 -27 -17z m52 -132 c-44 -30 -139 -69 -139 -57 0 7 23 41
52 76 l52 63 29 -33 28 -34 -22 -15z m-509 -144 c0 -36 4 -67 8 -70 5 -3 31
26 58 64 l49 68 50 -46 c27 -26 52 -50 53 -54 2 -5 -29 -42 -69 -83 -40 -41
-70 -76 -68 -78 2 -2 31 -14 64 -27 39 -15 72 -37 95 -62 24 -27 53 -45 90
-58 l55 -19 3 -45 c2 -28 -1 -46 -8 -46 -5 0 -87 38 -180 85 -93 47 -172 85
-175 85 -3 0 -5 -43 -5 -95 0 -74 -3 -95 -14 -95 -7 0 -27 -3 -43 -6 -29 -6
-30 -4 -37 34 -4 27 -1 49 9 68 24 47 19 135 -10 178 -14 20 -25 50 -25 65 0
16 -3 49 -6 75 -6 40 -10 47 -25 43 -14 -4 -19 0 -19 17 0 19 11 26 68 43 37
11 70 21 75 22 4 0 7 -28 7 -63z m964 -44 l17 -108 -25 -45 c-28 -48 -34 -115
-16 -166 6 -15 29 -45 52 -65 23 -20 39 -40 35 -44 -4 -4 -33 -3 -64 2 l-58 9
-15 105 -15 105 -24 -55 -23 -55 -33 69 c-35 75 -40 73 -51 -24 -4 -33 -10
-63 -15 -66 -5 -2 -32 -2 -60 2 l-51 7 6 50 c4 35 13 59 31 77 23 24 24 27 8
43 -16 16 -16 23 0 123 9 58 20 110 23 115 3 5 29 9 59 9 59 0 61 -1 71 -80 4
-27 10 -50 14 -50 4 0 11 24 14 53 13 96 13 97 61 97 l43 0 16 -108z m-1434
54 c50 -33 80 -80 80 -127 0 -51 -44 -132 -101 -183 l-49 -44 30 -113 c16 -63
30 -115 30 -116 0 -7 -95 -31 -101 -26 -4 5 -50 105 -103 223 -56 125 -101
214 -108 214 -7 -1 -20 -4 -28 -8 -18 -7 -84 99 -76 121 7 16 97 58 170 79 31
8 83 13 133 11 69 -3 88 -8 123 -31z m1008 -25 c18 -12 32 -26 32 -31 0 -4
-32 -42 -71 -84 -54 -58 -66 -76 -51 -76 10 0 35 11 54 24 l35 23 39 -33 39
-34 -27 -24 c-36 -32 -129 -66 -182 -66 -93 0 -166 69 -166 158 0 70 38 124
110 157 51 23 147 16 188 -14z m883 -126 c15 -66 29 -113 32 -105 3 8 15 57
27 107 25 104 13 96 112 72 l36 -9 -85 -258 c-47 -141 -87 -258 -88 -260 -2
-2 -21 2 -43 9 -39 11 -39 12 -46 72 -3 33 -6 96 -7 141 l-1 81 -18 -98 c-10
-55 -21 -101 -24 -104 -3 -3 -25 -2 -48 1 -44 7 -44 7 -40 44 3 21 16 50 32
69 55 63 65 165 21 224 -13 18 -21 43 -21 69 0 27 -5 43 -15 46 -15 6 -21 35
-10 46 3 3 40 -2 83 -11 l77 -16 26 -120z m-184 -20 c34 -34 35 -38 31 -94 -5
-72 -40 -124 -102 -152 -102 -46 -196 6 -196 110 0 97 78 171 179 171 47 0 57
-4 88 -35z m-1037 -5 c0 -22 -5 -30 -18 -30 -30 0 -34 12 -10 37 27 29 28 29
28 -7z m-360 -5 c77 -40 94 -133 41 -218 -40 -61 -96 -91 -163 -85 -153 15
-164 218 -16 292 59 30 96 33 138 11z"/>
<path d="M411 591 c-12 -8 -11 -22 10 -90 13 -45 29 -81 35 -81 25 0 74 70 74
105 0 55 -72 95 -119 66z m69 -61 c11 -21 5 -60 -9 -60 -4 0 -12 18 -18 40 -8
32 -8 40 3 40 7 0 18 -9 24 -20z"/>
<path d="M1363 618 c-31 -35 -34 -56 -17 -96 l16 -37 60 65 c54 59 58 65 42
77 -28 21 -78 16 -101 -9z m40 -52 c-28 -36 -43 -38 -43 -7 0 24 20 41 47 41
l24 0 -28 -34z"/>
<path d="M2086 519 c-45 -35 -30 -96 28 -119 35 -13 74 4 95 42 19 33 8 47
-17 25 -24 -22 -45 -21 -65 1 -22 24 -22 48 1 61 15 9 15 10 1 11 -9 0 -28 -9
-43 -21z"/>
<path d="M725 475 c-30 -30 -31 -54 -4 -89 16 -20 29 -26 59 -26 30 0 43 6 59
26 12 15 21 35 21 46 0 18 -2 17 -29 -3 -29 -21 -31 -21 -55 -5 -30 19 -33 38
-10 60 14 15 14 16 -1 16 -9 0 -27 -11 -40 -25z"/>
</g>
</svg>
